<svg xmlns="http://www.w3.org/2000/svg" width="8.400" height="4.200" viewBox="0 0 8.400 4.200" fill="none">
  <path d="M 0.557 -0.557 C 0.249 -0.864 -0.249 -0.864 -0.557 -0.557 C -0.864 -0.249 -0.864 0.249 -0.557 0.557 L 0 0 L 0.557 -0.557 Z M 4.2 4.2 L 3.643 4.757 C 3.951 5.064 4.449 5.064 4.757 4.757 L 4.2 4.2 Z M 8.957 0.557 C 9.264 0.249 9.264 -0.249 8.957 -0.557 C 8.649 -0.864 8.151 -0.864 7.843 -0.557 L 8.4 0 L 8.957 0.557 Z M 0 0 L -0.557 0.557 L 3.643 4.757 L 4.2 4.2 L 4.757 3.643 L 0.557 -0.557 L 0 0 Z M 4.2 4.2 L 4.757 4.757 L 8.957 0.557 L 8.4 0 L 7.843 -0.557 L 3.643 3.643 L 4.2 4.2 Z" fill="currentColor" fill-rule="nonzero"></path>
</svg>