<svg xmlns="http://www.w3.org/2000/svg" width="13.500" height="13.500" viewBox="0 0 13.500 13.500" fill="none">
  <path d="M 6.75 13.5 C 5.025 13.5 3.522 12.928 2.241 11.784 C 0.959 10.641 0.225 9.212 0.038 7.5 L 1.575 7.5 C 1.75 8.8 2.328 9.875 3.309 10.725 C 4.291 11.575 5.438 12 6.75 12 C 8.212 12 9.453 11.491 10.472 10.472 C 11.491 9.453 12 8.212 12 6.75 C 12 5.287 11.491 4.047 10.472 3.028 C 9.453 2.009 8.212 1.5 6.75 1.5 C 5.887 1.5 5.081 1.7 4.331 2.1 C 3.581 2.5 2.95 3.05 2.438 3.75 L 4.5 3.75 L 4.5 5.25 L 0 5.25 L 0 0.75 L 1.5 0.75 L 1.5 2.513 C 2.138 1.713 2.916 1.094 3.834 0.656 C 4.753 0.219 5.725 0 6.75 0 C 7.688 0 8.566 0.178 9.384 0.534 C 10.203 0.891 10.916 1.372 11.522 1.978 C 12.128 2.584 12.609 3.297 12.966 4.116 C 13.322 4.934 13.5 5.813 13.5 6.75 C 13.5 7.688 13.322 8.566 12.966 9.384 C 12.609 10.203 12.128 10.916 11.522 11.522 C 10.916 12.128 10.203 12.609 9.384 12.966 C 8.566 13.322 7.688 13.5 6.75 13.5 L 6.75 13.5 M 8.85 9.9 L 6 7.05 L 6 3 L 7.5 3 L 7.5 6.45 L 9.9 8.85 L 8.85 9.9 L 8.85 9.9" fill="currentColor" fill-rule="nonzero"></path>
</svg>