<svg xmlns="http://www.w3.org/2000/svg" width="12" height="15" viewBox="0 0 12 15" fill="none">
  <path d="M 5.213 10.163 L 9.45 5.925 L 8.381 4.856 L 5.213 8.025 L 3.638 6.45 L 2.569 7.519 L 5.213 10.163 L 5.213 10.163 M 6 15 C 4.262 14.563 2.828 13.566 1.697 12.009 C 0.566 10.453 0 8.725 0 6.825 L 0 2.25 L 6 0 L 12 2.25 L 12 6.825 C 12 8.725 11.434 10.453 10.303 12.009 C 9.172 13.566 7.738 14.563 6 15 L 6 15 M 6 13.425 C 7.3 13.012 8.375 12.188 9.225 10.95 C 10.075 9.712 10.5 8.337 10.5 6.825 L 10.5 3.281 L 6 1.594 L 1.5 3.281 L 1.5 6.825 C 1.5 8.337 1.925 9.712 2.775 10.95 C 3.625 12.188 4.7 13.012 6 13.425 L 6 13.425 M 6 7.5 L 6 7.5 L 6 7.5 L 6 7.5 L 6 7.5 L 6 7.5 L 6 7.5 L 6 7.5 L 6 7.5 L 6 7.5" fill="currentColor" fill-rule="nonzero"></path>
</svg>