<svg xmlns="http://www.w3.org/2000/svg" width="110" height="180" viewBox="0 0 110 180" fill="none">
  <path d="M 2.5 180 L 0 158 L 28.5 79.5 C 31 81.833 33.708 83.792 36.625 85.375 C 39.542 86.958 42.667 88.167 46 89 L 18.5 164.5 L 2.5 180 L 2.5 180 M 107.5 180 L 91.5 164.5 L 64 89 C 67.333 88.167 70.458 86.958 73.375 85.375 C 76.292 83.792 79 81.833 81.5 79.5 L 110 158 L 107.5 180 L 107.5 180 M 55 80 C 46.667 80 39.583 77.083 33.75 71.25 C 27.917 65.417 25 58.333 25 50 C 25 43.5 26.875 37.708 30.625 32.625 C 34.375 27.542 39.167 24 45 22 L 45 0 L 65 0 L 65 22 C 70.833 24 75.625 27.542 79.375 32.625 C 83.125 37.708 85 43.5 85 50 C 85 58.333 82.083 65.417 76.25 71.25 C 70.417 77.083 63.333 80 55 80 L 55 80 M 55 60 C 57.833 60 60.208 59.042 62.125 57.125 C 64.042 55.208 65 52.833 65 50 C 65 47.167 64.042 44.792 62.125 42.875 C 60.208 40.958 57.833 40 55 40 C 52.167 40 49.792 40.958 47.875 42.875 C 45.958 44.792 45 47.167 45 50 C 45 52.833 45.958 55.208 47.875 57.125 C 49.792 59.042 52.167 60 55 60 L 55 60" fill="currentColor" fill-rule="nonzero"></path>
</svg>