<svg xmlns="http://www.w3.org/2000/svg" width="240" height="213.333" viewBox="0 0 240 213.333" fill="none">
  <path d="M 13.333 26.667 L 13.333 0 L 226.667 0 L 226.667 26.667 L 13.333 26.667 L 13.333 26.667 M 13.333 213.333 L 13.333 133.333 L 0 133.333 L 0 106.667 L 13.333 40 L 226.667 40 L 240 106.667 L 240 133.333 L 226.667 133.333 L 226.667 213.333 L 200 213.333 L 200 133.333 L 146.667 133.333 L 146.667 213.333 L 13.333 213.333 L 13.333 213.333 M 40 186.667 L 120 186.667 L 120 133.333 L 40 133.333 L 40 186.667 L 40 186.667 M 27.333 106.667 L 27.333 106.667 L 212.667 106.667 L 212.667 106.667 L 27.333 106.667 L 27.333 106.667 M 27.333 106.667 L 212.667 106.667 L 204.667 66.667 L 35.333 66.667 L 27.333 106.667 L 27.333 106.667" fill="currentColor" fill-rule="nonzero"></path>
</svg>